<svg id="visual" viewBox="0 0 900 600" width="900" height="600" xmlns="http://www.w3.org/2000/svg" xmlns:xlink="http://www.w3.org/1999/xlink" version="1.1"><path d="M0 49L82 73L164 49L245 79L327 85L409 133L491 43L573 109L655 67L736 73L818 43L900 85L900 0L818 0L736 0L655 0L573 0L491 0L409 0L327 0L245 0L164 0L82 0L0 0Z" fill="#ff6868"></path><path d="M0 235L82 301L164 205L245 319L327 205L409 235L491 193L573 295L655 193L736 163L818 211L900 205L900 83L818 41L736 71L655 65L573 107L491 41L409 131L327 83L245 77L164 47L82 71L0 47Z" fill="#e0505d"></path><path d="M0 385L82 427L164 337L245 379L327 367L409 343L491 355L573 385L655 343L736 289L818 355L900 349L900 203L818 209L736 161L655 191L573 293L491 191L409 233L327 203L245 317L164 203L82 299L0 233Z" fill="#c03952"></path><path d="M0 517L82 511L164 565L245 499L327 541L409 553L491 517L573 535L655 535L736 517L818 541L900 547L900 347L818 353L736 287L655 341L573 383L491 353L409 341L327 365L245 377L164 335L82 425L0 383Z" fill="#a12146"></path><path d="M0 601L82 601L164 601L245 601L327 601L409 601L491 601L573 601L655 601L736 601L818 601L900 601L900 545L818 539L736 515L655 533L573 533L491 515L409 551L327 539L245 497L164 563L82 509L0 515Z" fill="#820339"></path></svg>